# xmcd
#
# Track frame offsets: 
#        150
#        24020
#        40207
#        61630
#        77742
#        96792
#        117747
#        132707
#        150135
#        164362
#
# Disc length: 2420 seconds
#
# Revision: 0
# Processed by: cddbd v1.5.2PL0 Copyright (c) Steve Scherf et al.
# Submitted via: ExactAudioCopy v0.95b4
#
DISCID=7209720a
DTITLE=0 - 月光 ● 裡情
DYEAR=2000
DGENRE=Acid Punk
TTITLE0=月光光
TTITLE1=從不哭
TTITLE2=海覓天
TTITLE3=某種感覺
TTITLE4=緣來是妳
TTITLE5=狡辯
TTITLE6=想見他
TTITLE7=對對錯錯
TTITLE8=玻璃
TTITLE9=情字這條路之不歸路
EXTD=
EXTT0=
EXTT1=
EXTT2=
EXTT3=
EXTT4=
EXTT5=
EXTT6=
EXTT7=
EXTT8=
EXTT9=
PLAYORDER=
